<svg width="30" height="30" viewBox="0 0 30 30" fill="none" xmlns="http://www.w3.org/2000/svg">
<g id="Layer_7">
<path id="Vector" d="M22.4212 13.6099C22.4212 11.6548 21.6446 9.77982 20.2621 8.39738C18.8797 7.01493 17.0047 6.23828 15.0496 6.23828C13.0945 6.23828 11.2195 7.01493 9.83707 8.39738C8.45463 9.77982 7.67798 11.6548 7.67798 13.6099C7.68132 15.2482 8.23526 16.8378 9.2508 18.1233C10.2663 19.4088 11.6845 20.3157 13.2775 20.6982L13.026 22.2101H11.0024V24.2337H19.0968V22.2101H17.0732L16.8101 20.6982C18.4052 20.3179 19.826 19.412 20.8438 18.1263C21.8616 16.8405 22.4172 15.2497 22.4212 13.6099ZM8.25614 13.6099C8.2549 12.3381 8.61071 11.0914 9.28307 10.0118C9.95544 8.93225 10.9174 8.0631 12.0594 7.50328C13.2014 6.94347 14.4776 6.71548 15.7428 6.84526C17.008 6.97503 18.2114 7.45737 19.2159 8.23737C20.2205 9.01737 20.9859 10.0637 21.4251 11.2573C21.8643 12.4509 21.9596 13.7438 21.7002 14.9889C21.4408 16.234 20.8371 17.3813 19.9577 18.3002C19.0784 19.2191 17.9588 19.8726 16.7263 20.1865L16.4719 18.6717C17.3481 18.4037 18.1485 17.9322 18.8077 17.2957H18.932C19.6026 17.2957 20.1028 17.0644 20.3514 16.6395C20.6 16.2145 20.5451 15.6103 20.1664 14.9946C20.3484 14.3243 20.3959 13.6247 20.3063 12.9359C20.2167 12.2472 19.9917 11.583 19.6443 10.9816C19.2968 10.3802 18.8338 9.85356 18.2819 9.43193C17.73 9.01029 17.1001 8.70204 16.4285 8.52493C16.0961 7.86293 15.6104 7.43508 15.0554 7.44665C14.2431 7.46688 13.6302 8.62321 13.6302 8.62321C11.6182 9.09442 9.8461 11.2886 9.8461 13.6099C9.84604 14.0476 9.90042 14.4836 10.008 14.9079L9.96751 14.9657C9.57436 15.5872 9.50498 16.1798 9.76516 16.6308C10.0253 17.0818 10.5023 17.2957 11.1759 17.2957H11.3378C11.9714 17.9387 12.7599 18.4076 13.6273 18.6573L13.3729 20.1865C11.9118 19.8124 10.6164 18.9634 9.69022 17.7729C8.76405 16.5825 8.25961 15.1182 8.25614 13.6099ZM14.0089 13.0317C13.9619 13.1232 13.9269 13.2204 13.9048 13.3208L11.676 13.4075L11.6153 13.4422C11.1928 13.6782 10.8038 13.9699 10.459 14.3095C10.2924 13.2522 10.4941 12.1699 11.0304 11.2436C11.5667 10.3174 12.4049 9.60355 13.4047 9.22162C13.2824 9.68664 13.2231 10.166 13.2284 10.6468C13.2386 11.5056 13.5109 12.3407 14.0089 13.0404V13.0317ZM14.7605 15.2721C14.9051 14.983 15.012 14.9021 15.0901 14.7402C15.1363 14.7428 15.1826 14.7428 15.2288 14.7402L15.807 18.1861C15.5728 18.2121 15.2809 18.241 15.0525 18.241C14.7978 18.2294 14.5439 18.2033 14.2922 18.163L14.7605 15.2721ZM15.0843 12.9421C15.2096 12.9387 15.3331 12.9727 15.439 13.0398C15.5449 13.1069 15.6284 13.2041 15.6787 13.3189C15.7291 13.4337 15.7441 13.5609 15.7218 13.6843C15.6994 13.8076 15.6408 13.9216 15.5534 14.0114C15.466 14.1013 15.3538 14.1631 15.2311 14.1888C15.1084 14.2146 14.9808 14.2032 14.8646 14.156C14.7485 14.1089 14.649 14.0281 14.579 13.9242C14.5089 13.8202 14.4715 13.6977 14.4714 13.5723C14.4721 13.4074 14.5372 13.2492 14.6527 13.1315C14.7683 13.0138 14.9252 12.9459 15.0901 12.9421H15.0843ZM15.9515 15.5439L16.5962 16.573L16.6569 16.6077C17.0936 16.8656 17.5647 17.0603 18.0561 17.1859C17.5607 17.5961 16.9917 17.9081 16.3794 18.1051L15.9515 15.5439ZM18.825 16.7175C18.1835 16.6669 17.5622 16.4691 17.0096 16.1394L15.9342 14.4338C16.0499 14.321 16.1418 14.1861 16.2044 14.0372C16.267 13.8882 16.2989 13.7281 16.2984 13.5665C16.2984 13.5434 16.2984 13.5203 16.2984 13.4972C16.9644 13.4699 17.6249 13.6281 18.2064 13.9539C18.7855 14.2768 19.2807 14.7313 19.6518 15.2808C19.9177 15.7057 19.9871 16.096 19.8397 16.3504C19.6923 16.6048 19.328 16.7436 18.825 16.7175ZM19.6923 14.4049C19.3372 14.0323 18.9302 13.7129 18.4839 13.4567C17.7596 13.0517 16.9322 12.8687 16.1047 12.9306C16.0226 12.821 15.9252 12.7236 15.8157 12.6415L16.7841 10.7277V10.6468C16.8011 10.1607 16.7525 9.6745 16.6395 9.20138C17.6641 9.59299 18.525 10.3214 19.0808 11.267C19.6367 12.2127 19.8543 13.3192 19.698 14.4049H19.6923ZM16.2984 10.5861L15.3387 12.3813C15.1761 12.3448 15.0076 12.343 14.8443 12.3758C14.6809 12.4087 14.5263 12.4756 14.3905 12.5721C14.0185 11.9984 13.8179 11.3305 13.8123 10.6468C13.8123 9.09731 14.4685 8.01903 15.0583 8.01903C15.648 8.01903 16.2782 9.07418 16.2984 10.5861ZM10.4445 15.2721C10.8058 14.7407 11.2846 14.2996 11.8437 13.9828L13.9337 13.9019C13.9771 14.0555 14.0505 14.1991 14.1497 14.3241C14.249 14.4492 14.3721 14.5533 14.5119 14.6304C14.2047 15.2438 13.7282 15.7565 13.1388 16.1076C12.5736 16.4542 11.9349 16.6632 11.2742 16.7175C10.7712 16.7349 10.4069 16.6019 10.2537 16.3475C10.1005 16.0931 10.1757 15.7 10.4445 15.2721ZM13.4394 16.6077C13.6544 16.4831 13.8568 16.3379 14.0436 16.1741L13.7256 18.082C13.1153 17.8963 12.5496 17.5873 12.0634 17.1743C12.5459 17.051 13.009 16.8613 13.4394 16.6106V16.6077ZM14.1823 18.7642C14.4699 18.8036 14.7594 18.8258 15.0496 18.8307C15.3337 18.8258 15.6173 18.8065 15.8995 18.7729L16.1568 20.3079C15.4209 20.4312 14.6696 20.4312 13.9337 20.3079L14.1823 18.7642ZM18.5186 22.7883V23.6555H11.5806V22.7883H18.5186ZM16.495 22.2101H13.6042L13.8499 20.8138C14.2474 20.8911 14.6506 20.9356 15.0554 20.9468C15.4606 20.9298 15.8638 20.8796 16.2608 20.7965L16.495 22.2101Z" fill="#F5F5F5"/>
</g>
</svg>
