<svg width="30" height="30" viewBox="0 0 30 30" fill="none" xmlns="http://www.w3.org/2000/svg">
<g id="Layer_32">
<path id="Vector" d="M11.3077 16.7177H14.1986V17.2959H11.3077V16.7177ZM24.4379 23.0775C24.4064 23.1258 24.3656 23.1673 24.3178 23.1996C24.2701 23.2319 24.2164 23.2544 24.1598 23.2657C24.1033 23.277 24.0451 23.2769 23.9886 23.2654C23.9321 23.254 23.8785 23.2314 23.8308 23.1989L21.1019 21.343C21.0004 21.2791 20.9276 21.1785 20.8985 21.0621C20.8694 20.9458 20.8863 20.8227 20.9458 20.7186C21.0498 20.5509 21.3534 20.6145 21.3534 20.6087L21.3996 8.37765C21.4031 8.28671 21.3871 8.19607 21.3527 8.11182C21.3183 8.02756 21.2663 7.95163 21.2002 7.8891C21.051 7.76175 20.8582 7.69747 20.6625 7.70987C20.5401 7.71824 20.421 7.75246 20.3128 7.81026C20.2047 7.86807 20.1101 7.94814 20.0352 8.0452C19.8563 8.29669 19.7789 8.60638 19.8183 8.91245C19.8704 10.936 19.9571 12.3814 19.9571 16.2234C19.9571 19.5478 18.8239 20.3226 17.9566 20.5018V21.2332L16.1383 22.4647H15.433C15.3624 22.5702 15.267 22.6567 15.155 22.7165C15.0431 22.7764 14.9181 22.8077 14.7912 22.8077C14.6643 22.8077 14.5393 22.7764 14.4273 22.7165C14.3154 22.6567 14.2199 22.5702 14.1494 22.4647L9.45472 22.4993C9.38398 22.5996 9.29022 22.6813 9.1813 22.7378C9.07239 22.7942 8.95152 22.8237 8.82885 22.8237C8.70619 22.8237 8.58532 22.7942 8.47641 22.7378C8.36749 22.6813 8.27373 22.5996 8.20299 22.4993H6.10425V17.6659C6.10425 15.5614 8.06423 13.8269 10.1745 13.8269H14.3662C16.4794 13.8269 17.9566 15.5614 17.9566 17.6659V19.8745C18.5348 19.6316 19.3789 18.8309 19.3789 16.2176C19.3789 12.3959 19.3963 10.9476 19.2055 8.9616C19.1688 8.48368 19.3144 8.0096 19.6131 7.63471C19.7457 7.49349 19.9068 7.38207 20.0857 7.30781C20.2646 7.23355 20.4573 7.19816 20.6509 7.20397C20.8257 7.19108 21.0012 7.21619 21.1654 7.27756C21.3296 7.33894 21.4785 7.43514 21.602 7.55955C21.7643 7.79999 21.8637 8.0773 21.8911 8.36609L21.813 20.7967L24.3165 22.4531C24.4145 22.5205 24.4822 22.6237 24.5049 22.7405C24.5276 22.8573 24.5035 22.9783 24.4379 23.0775ZM6.68241 20.5105L10.1514 17.186V14.405C8.36777 14.405 6.68241 15.8793 6.68241 17.6659V20.5105ZM17.3785 17.6659C17.3785 15.8736 16.1614 14.405 14.3662 14.405H10.7296V17.4259L6.68241 21.3286V22.0426L8.05845 22.0253C8.05577 21.8213 8.13421 21.6247 8.27652 21.4786C8.41883 21.3324 8.61335 21.2489 8.81729 21.2462C9.02123 21.2435 9.21789 21.3219 9.36399 21.4642C9.5101 21.6066 9.59369 21.8011 9.59637 22.005L14.028 21.9472C14.0523 21.7647 14.1412 21.597 14.2787 21.4745C14.4162 21.352 14.593 21.2829 14.7771 21.2798C14.9612 21.2766 15.1403 21.3396 15.2819 21.4573C15.4234 21.575 15.5181 21.7396 15.5486 21.9212H16.0053L17.3785 20.8949V17.6659ZM11.3077 15.2723H14.1986V14.6941H11.3077V15.2723ZM11.3077 16.1395H14.1986V15.5614H11.3077V16.1395Z" fill="#F5F5F5"/>
</g>
</svg>
