<svg width="29" height="30" viewBox="0 0 29 30" fill="none" xmlns="http://www.w3.org/2000/svg">
<g id="Layer_27">
<path id="Vector" d="M19.2748 23.4157L18.211 19.8137V19.7819C18.0086 19.3165 17.7108 18.6256 17.0142 18.5562L16.6788 17.5126L18.7689 5.7325L17.7744 4.57617H11.1949L10.1976 5.7325L12.3339 17.5069L11.9552 18.5273C11.377 18.5822 10.9463 19.0477 10.7382 19.7964L9.69458 23.4099C9.69458 24.0459 10.1484 24.5807 11.0157 24.7253V25.9683H12.7502V24.812H16.2192V25.9683H17.9537V24.7253C18.8209 24.5836 19.2748 24.0488 19.2748 23.4157ZM12.834 17.874H16.1758L16.4042 18.4522H12.5796L12.834 17.874ZM16.1382 17.2958H12.8774L12.2096 13.5811L16.3435 6.31067H18.078L16.1382 17.2958ZM11.4638 9.49058L13.2561 6.31067H14.1233L11.669 10.6007L11.4638 9.49058ZM11.8309 11.5142L14.7738 6.31067H15.6728L12.0477 12.6705L11.8309 11.5142ZM11.51 5.15434H17.4593L17.9277 5.7325H11.0417L11.51 5.15434ZM12.5883 6.31067L11.3048 8.55395L10.8914 6.31067H12.5883ZM12.172 25.3901H11.5939V24.812H12.172V25.3901ZM17.3755 25.3901H16.7973V24.812H17.3755V25.3901ZM17.6357 24.2338H11.3337C10.7555 24.2338 10.267 23.8782 10.2381 23.4764L11.3048 19.938C11.3828 19.6085 11.5939 19.0303 12.0766 19.0303H16.8927C17.2657 19.0303 17.4709 19.4553 17.6819 19.9496L18.7313 23.4533C18.6995 23.8551 18.211 24.2338 17.6357 24.2338ZM11.8829 23.3666H13.9065V21.6321H11.8829V23.3666ZM12.4611 22.2102H13.3284V22.7884H12.4611V22.2102ZM15.0628 23.3666H17.0864V21.6321H15.0628V23.3666ZM15.641 22.2102H16.5083V22.7884H15.641V22.2102ZM16.5083 20.1866H12.4611V19.6085H16.5083V20.1866Z" fill="#F5F5F5"/>
</g>
</svg>
