<svg width="30" height="30" viewBox="0 0 30 30" fill="none" xmlns="http://www.w3.org/2000/svg">
<g id="Layer_28">
<path id="Vector" d="M21.9186 15.5613L24.2544 11.8033H20.9386C20.1234 9.77969 18.7618 8.56265 16.5445 8.30247C16.7073 8.0111 16.791 7.68223 16.7874 7.3485C16.7874 6.53907 16.3219 5.88574 15.7264 5.88574C15.1309 5.88574 14.6655 6.51305 14.6655 7.33116C14.6672 7.65019 14.7551 7.96283 14.9199 8.23599C12.6997 8.4846 11.3324 9.92712 10.5114 11.7426C10.5114 11.7426 8.93299 11.6934 8.51382 11.7194C8.09465 11.7455 7.15802 12.0085 7.02504 12.685L5.61721 19.5796C5.55408 19.8984 5.61954 20.2293 5.79932 20.5C5.9791 20.7708 6.25863 20.9595 6.57697 21.025C6.89586 21.0889 7.2271 21.0238 7.49805 20.8439C7.769 20.664 7.95755 20.384 8.02238 20.0653L9.17871 14.2836L9.73664 14.6276C9.34927 16.9171 9.13824 24.812 9.13824 24.812H22.147C22.147 24.812 22.2048 17.6485 21.9186 15.5613ZM23.2166 12.3814L21.7712 14.6941C21.6518 13.9032 21.4463 13.1277 21.1583 12.3814H23.2166ZM15.2466 7.3167C15.2466 6.80503 15.501 6.44945 15.7293 6.44945C15.9577 6.44945 16.2121 6.80503 16.2121 7.3167C16.2121 7.82838 15.9577 8.18395 15.7293 8.18395C15.501 8.18395 15.2466 7.82549 15.2466 7.3167ZM15.7293 8.78235C18.0102 8.78235 19.4094 10.0688 20.2679 11.8033H11.1849C12.2835 9.45592 13.4456 8.78235 15.7264 8.78235H15.7293ZM7.45867 19.9496C7.42137 20.1155 7.32061 20.2602 7.17794 20.3527C7.03528 20.4452 6.86207 20.4782 6.6954 20.4445C6.52873 20.4109 6.38186 20.3133 6.28624 20.1727C6.19062 20.0322 6.15385 19.8597 6.18381 19.6923L7.57719 12.7977C7.63772 12.6743 7.72277 12.5645 7.82715 12.475C7.93152 12.3856 8.05304 12.3183 8.18427 12.2774L8.69016 13.8644L7.45867 19.9496ZM9.22496 13.6968L8.79134 12.3814H10.3668C10.1635 12.9361 9.99837 13.504 9.87251 14.0812L9.22496 13.6968ZM10.9219 12.3814H20.5772C21.6122 14.9832 21.6411 18.7413 21.644 21.9212H9.8118C9.81469 18.7413 9.84649 14.9832 10.9219 12.3814ZM21.5688 24.2338H9.71641V22.4993H21.5688V24.2338Z" fill="#F5F5F5"/>
</g>
</svg>
