<svg width="30" height="30" viewBox="0 0 30 30" fill="none" xmlns="http://www.w3.org/2000/svg">
<g id="Layer_19">
<path id="Vector" d="M3.18042 8.62354V22.2104H26.3071V8.62354H3.18042ZM25.7289 9.2017V17.8742H3.75859V9.2017H25.7289ZM3.75859 21.6323V18.4524H25.7289V21.6323H3.75859ZM9.2078 17.192C9.96092 17.192 10.6971 16.9686 11.3233 16.5501C11.9494 16.1316 12.4374 15.5369 12.7255 14.841C13.0136 14.1452 13.0888 13.3795 12.9417 12.6409C12.7945 11.9023 12.4316 11.2239 11.8989 10.6916C11.3661 10.1593 10.6875 9.79689 9.94878 9.65031C9.21006 9.50374 8.44446 9.57954 7.74883 9.86815C7.05321 10.1567 6.4588 10.6452 6.0408 11.2717C5.62281 11.8981 5.4 12.6345 5.40058 13.3876C5.40211 14.3966 5.80381 15.3638 6.51755 16.077C7.2313 16.7902 8.1988 17.1912 9.2078 17.192ZM9.2078 10.1586C9.84645 10.1586 10.4708 10.3479 11.0018 10.7028C11.5328 11.0576 11.9467 11.5619 12.1911 12.1519C12.4355 12.7419 12.4994 13.3912 12.3748 14.0176C12.2502 14.644 11.9427 15.2193 11.4911 15.6709C11.0395 16.1225 10.4641 16.43 9.83776 16.5546C9.21138 16.6792 8.56213 16.6153 7.97209 16.3709C7.38206 16.1265 6.87775 15.7126 6.52294 15.1816C6.16812 14.6506 5.97874 14.0263 5.97874 13.3876C5.97951 12.5315 6.31996 11.7106 6.92536 11.1052C7.53076 10.4998 8.35163 10.1593 9.2078 10.1586ZM20.271 17.192C21.0241 17.192 21.7603 16.9686 22.3865 16.5501C23.0126 16.1316 23.5006 15.5369 23.7887 14.841C24.0768 14.1452 24.152 13.3795 24.0049 12.6409C23.8577 11.9023 23.4948 11.2239 22.9621 10.6916C22.4294 10.1593 21.7507 9.79689 21.012 9.65031C20.2733 9.50374 19.5077 9.57954 18.812 9.86815C18.1164 10.1567 17.522 10.6452 17.104 11.2717C16.686 11.8981 16.4632 12.6345 16.4638 13.3876C16.4653 14.3966 16.867 15.3638 17.5808 16.077C18.2945 16.7902 19.262 17.1912 20.271 17.192ZM20.271 10.1586C20.9096 10.1586 21.534 10.3479 22.065 10.7028C22.596 11.0576 23.0099 11.5619 23.2543 12.1519C23.4987 12.7419 23.5626 13.3912 23.438 14.0176C23.3134 14.644 23.0059 15.2193 22.5543 15.6709C22.1027 16.1225 21.5273 16.43 20.901 16.5546C20.2746 16.6792 19.6253 16.6153 19.0353 16.3709C18.4453 16.1265 17.941 15.7126 17.5861 15.1816C17.2313 14.6506 17.0419 14.0263 17.0419 13.3876C17.0427 12.5315 17.3832 11.7106 17.9886 11.1052C18.594 10.4998 19.4148 10.1593 20.271 10.1586ZM7.64097 14.6191L7.3172 14.9082L7.7248 15.2985L8.0717 14.966C8.33889 15.1472 8.64302 15.2667 8.96208 15.3158V15.8506H9.54024V15.3158C9.8466 15.262 10.1364 15.1384 10.3873 14.9545L10.6966 15.2724L11.1013 14.8648L10.7746 14.6162C10.9572 14.3863 11.0812 14.1155 11.136 13.827H11.5638V13.2489H11.136C11.0834 12.9118 10.9603 12.5897 10.7746 12.3036L11.0984 11.9422L10.6966 11.5144L10.4075 11.8295C10.1513 11.6401 9.85425 11.5134 9.54024 11.4594V11.2253H8.96208V11.4594C8.64223 11.5126 8.33815 11.636 8.0717 11.8208L7.73637 11.497L7.32298 11.9046L7.64386 12.3036C7.45726 12.5895 7.33314 12.9116 7.27962 13.2489H6.9385V13.827H7.27962C7.33415 14.1164 7.45815 14.3882 7.64097 14.6191ZM8.05725 12.7169L8.34633 12.9627L8.75394 12.5348L8.49376 12.2457C8.62469 12.1311 8.78873 12.0613 8.96208 12.0463V12.6707H9.54024V12.0463C9.54024 12.081 9.82933 12.1475 9.97098 12.2371L9.6819 12.5262L10.0866 12.9338L10.3757 12.7256C10.4799 12.8811 10.5398 13.0619 10.5491 13.2489H10.1184V13.827H10.5491C10.5145 14.1161 10.448 14.067 10.3583 14.2057L10.0693 13.8848L9.66166 14.2751L9.9652 14.5497C9.82933 14.6365 9.54024 14.6943 9.54024 14.729V14.4052H8.96208V14.729C8.78777 14.7174 8.62169 14.6506 8.48798 14.5382L8.75972 14.2491L8.34633 13.8415L8.05725 14.1999C7.96763 14.0641 7.90114 14.1103 7.86356 13.8212H8.38391V13.2489H7.86645C7.8797 13.0582 7.94577 12.875 8.05725 12.7198V12.7169ZM18.7042 14.6191L18.3804 14.9082L18.7909 15.2956L19.0973 14.9631C19.3498 15.1444 19.6406 15.2651 19.9472 15.3158V15.8506H20.5254V15.3158C20.8434 15.2625 21.1456 15.139 21.41 14.9545L21.7424 15.2724L22.1558 14.8648L21.8349 14.6162C22.0171 14.3861 22.1411 14.1153 22.1963 13.827H22.549V13.2489H22.1963C22.1437 12.9118 22.0206 12.5897 21.8349 12.3036L22.1587 11.9422L21.7511 11.5144L21.41 11.8295C21.1461 11.6423 20.844 11.516 20.5254 11.4594V11.2253H19.9472V11.4594C19.639 11.5129 19.3473 11.6366 19.0944 11.8208L18.7909 11.497L18.3862 11.9046L18.7128 12.3036C18.524 12.5889 18.3978 12.9111 18.3428 13.2489H17.9236V13.827H18.3428C18.3965 14.1162 18.5195 14.388 18.7013 14.6191H18.7042ZM19.1205 12.7198L19.4095 12.9656L19.8171 12.5377L19.5281 12.2486C19.6581 12.1561 19.9472 12.0925 19.9472 12.0463V12.6707H20.5254V12.0463C20.699 12.0572 20.8643 12.1242 20.9966 12.2371L20.722 12.5262L21.1354 12.9338L21.4244 12.7256C21.5329 12.8798 21.5969 13.0608 21.6095 13.2489H21.1036V13.827H21.6095C21.5748 14.1161 21.5083 14.0699 21.4187 14.2057L21.1296 13.8848L20.722 14.2751L20.9879 14.5497C20.854 14.6583 20.6889 14.7211 20.5167 14.729V14.4052H19.9472V14.729C19.9472 14.6943 19.6581 14.6278 19.5107 14.5382L19.7998 14.2491L19.3951 13.8415L19.106 14.1999C19.0164 14.0641 18.9528 14.1103 18.9181 13.8212H19.3691V13.2489H18.9297C18.9421 13.0585 19.0071 12.8754 19.1176 12.7198H19.1205ZM9.2078 18.4524C8.92192 18.4524 8.64247 18.5371 8.40477 18.6959C8.16707 18.8548 7.98181 19.0805 7.87241 19.3446C7.76301 19.6087 7.73439 19.8994 7.79016 20.1798C7.84593 20.4601 7.98359 20.7177 8.18574 20.9198C8.38788 21.122 8.64543 21.2596 8.92581 21.3154C9.2062 21.3712 9.49682 21.3426 9.76093 21.2332C10.025 21.1238 10.2508 20.9385 10.4096 20.7008C10.5684 20.4631 10.6532 20.1836 10.6532 19.8978C10.6532 19.5144 10.5009 19.1468 10.2299 18.8757C9.95879 18.6046 9.59115 18.4524 9.2078 18.4524ZM9.54024 20.6956V19.8978H8.96208V20.6956C8.79896 20.6308 8.65712 20.5218 8.55245 20.3809C8.44778 20.24 8.38442 20.0727 8.36946 19.8978C8.36941 19.6707 8.4584 19.4527 8.61731 19.2906C8.77622 19.1284 8.99237 19.0351 9.21936 19.0305C9.44937 19.0305 9.66996 19.1219 9.8326 19.2845C9.99524 19.4472 10.0866 19.6678 10.0866 19.8978C10.08 20.0687 10.0252 20.2343 9.92852 20.3755C9.83185 20.5167 9.69725 20.6277 9.54024 20.6956ZM19.2534 18.8715C19.0484 19.0725 18.9079 19.33 18.8497 19.6111C18.7916 19.8923 18.8185 20.1844 18.9271 20.4502C19.0356 20.716 19.2209 20.9435 19.4592 21.1036C19.6975 21.2637 19.9781 21.3492 20.2652 21.3492C20.5523 21.3492 20.8329 21.2637 21.0713 21.1036C21.3096 20.9435 21.4948 20.716 21.6034 20.4502C21.7119 20.1844 21.7388 19.8923 21.6807 19.6111C21.6226 19.33 21.482 19.0725 21.277 18.8715C21.0064 18.6071 20.643 18.4592 20.2646 18.4598C19.8863 18.4603 19.5232 18.6092 19.2534 18.8744V18.8715ZM19.6581 20.4991C19.5431 20.3879 19.4611 20.2471 19.4211 20.0922C19.3811 19.9373 19.3847 19.7744 19.4316 19.6215C19.4784 19.4685 19.5666 19.3315 19.6865 19.2256C19.8063 19.1197 19.9531 19.0489 20.1107 19.0213C20.2682 18.9936 20.4304 19.01 20.5792 19.0687C20.7279 19.1274 20.8576 19.2262 20.9538 19.354C21.05 19.4818 21.1089 19.6337 21.1241 19.7929C21.1393 19.9522 21.1102 20.1125 21.04 20.2562L20.4618 19.6781L20.0542 20.0857L20.6324 20.6638C20.4725 20.7388 20.2936 20.7632 20.1195 20.7338C19.9454 20.7043 19.7845 20.6224 19.6581 20.4991Z" fill="#F5F5F5"/>
</g>
</svg>
