<svg width="24" height="25" viewBox="0 0 24 25" fill="none" xmlns="http://www.w3.org/2000/svg">
<g id="Frame" clip-path="url(#clip0_480_1690)">
<g id="Layer 2">
<path id="Vector" d="M12 22.3308C10.0716 22.3308 8.18657 21.759 6.58319 20.6876C4.97982 19.6163 3.73013 18.0936 2.99218 16.312C2.25422 14.5304 2.06114 12.57 2.43735 10.6787C2.81355 8.78737 3.74215 7.05009 5.10571 5.68652C6.46928 4.32296 8.20656 3.39436 10.0979 3.01816C11.9892 2.64195 13.9496 2.83504 15.7312 3.57299C17.5127 4.31094 19.0355 5.56063 20.1068 7.16401C21.1782 8.76739 21.75 10.6524 21.75 12.5808C21.75 15.1667 20.7228 17.6466 18.8943 19.4751C17.0658 21.3036 14.5859 22.3308 12 22.3308ZM12 4.33081C10.3683 4.33081 8.77326 4.81467 7.41655 5.72119C6.05984 6.62771 5.00242 7.91619 4.378 9.42368C3.75358 10.9312 3.5902 12.59 3.90853 14.1903C4.22685 15.7907 5.01259 17.2607 6.16637 18.4144C7.32016 19.5682 8.79017 20.354 10.3905 20.6723C11.9909 20.9906 13.6497 20.8272 15.1571 20.2028C16.6646 19.5784 17.9531 18.521 18.8596 17.1643C19.7662 15.8076 20.25 14.2125 20.25 12.5808C20.25 10.3928 19.3808 8.29436 17.8336 6.74718C16.2865 5.20001 14.188 4.33081 12 4.33081Z" fill="#F5F5F5"/>
<path id="Vector_2" d="M12 17.8308C11.8011 17.8308 11.6103 17.7518 11.4697 17.6111C11.329 17.4705 11.25 17.2797 11.25 17.0808V8.08081C11.25 7.8819 11.329 7.69113 11.4697 7.55048C11.6103 7.40983 11.8011 7.33081 12 7.33081C12.1989 7.33081 12.3897 7.40983 12.5303 7.55048C12.671 7.69113 12.75 7.8819 12.75 8.08081V17.0808C12.75 17.2797 12.671 17.4705 12.5303 17.6111C12.3897 17.7518 12.1989 17.8308 12 17.8308Z" fill="#F5F5F5"/>
<path id="Vector_3" d="M16.5 13.3308H7.5C7.30109 13.3308 7.11032 13.2518 6.96967 13.1111C6.82902 12.9705 6.75 12.7797 6.75 12.5808C6.75 12.3819 6.82902 12.1911 6.96967 12.0505C7.11032 11.9098 7.30109 11.8308 7.5 11.8308H16.5C16.6989 11.8308 16.8897 11.9098 17.0303 12.0505C17.171 12.1911 17.25 12.3819 17.25 12.5808C17.25 12.7797 17.171 12.9705 17.0303 13.1111C16.8897 13.2518 16.6989 13.3308 16.5 13.3308Z" fill="#F5F5F5"/>
</g>
</g>
<defs>
<clipPath id="clip0_480_1690">
<rect width="24" height="24" fill="white" transform="translate(0 0.580811)"/>
</clipPath>
</defs>
</svg>
