<svg width="30" height="30" viewBox="0 0 30 30" fill="none" xmlns="http://www.w3.org/2000/svg">
<g id="Layer_16_copy">
<path id="Vector" d="M22.4193 4.86523H6.80884V23.9447H8.25425V25.3901H10.856V23.9447H18.3722V25.3901H20.9739V23.9447H22.4193V4.86523ZM21.8411 5.4434V6.02157H19.5285V6.59973H21.8411V7.46698H19.5285V8.04515H21.8411V8.62331H7.387V5.4434H21.8411ZM10.2778 24.812H8.83242V23.9447H10.2778V24.812ZM20.3957 24.812H18.9503V23.9447H20.3957V24.812ZM7.387 23.3665V9.20148H21.8411V23.3665H7.387ZM18.9706 10.0687H10.2576C9.64898 10.0887 9.07139 10.3421 8.64459 10.7765C8.21778 11.2108 7.9745 11.7928 7.96517 12.4016V20.2069C7.97413 20.8121 8.21852 21.39 8.64651 21.8179C9.0745 22.2459 9.6524 22.4903 10.2576 22.4993H18.9706C19.5748 22.4904 20.1518 22.2468 20.5797 21.82C21.0075 21.3933 21.2525 20.8168 21.263 20.2126V12.4074C21.2551 11.7975 21.0125 11.2141 20.5855 10.7786C20.1586 10.343 19.5802 10.0888 18.9706 10.0687ZM18.0831 10.6469V11.8032H11.1451V10.6469H18.0831ZM20.6848 17.7063L16.4642 21.9211H14.9928L20.6848 16.2349V17.7063ZM20.6848 15.4168L14.1747 21.9211H12.6136L20.6848 13.8557V15.4168ZM18.9706 21.9211H17.2823L20.6848 18.5244V20.2155C20.6737 20.6659 20.4893 21.0946 20.17 21.4123C19.8506 21.7301 19.421 21.9123 18.9706 21.9211ZM20.6848 13.0752H20.6386L11.7955 21.9211H10.2576C9.8067 21.9123 9.37665 21.7296 9.05722 21.4113C8.73779 21.0929 8.55368 20.6635 8.54334 20.2126V12.4074C8.55101 11.9508 8.73269 11.5143 9.05128 11.1871C9.36988 10.86 9.80135 10.6667 10.2576 10.6469H10.5669V12.3814H18.6612V10.6469H18.9706C19.4258 10.6666 19.8565 10.8591 20.1749 11.185C20.4934 11.511 20.6757 11.946 20.6848 12.4016V13.0752ZM17.2158 11.5141H12.0123V10.936H17.2158V11.5141ZM9.45684 8.49901C9.74271 8.49901 10.0222 8.41423 10.2599 8.25541C10.4976 8.09659 10.6828 7.87084 10.7922 7.60673C10.9016 7.34261 10.9303 7.05199 10.8745 6.77161C10.8187 6.49122 10.681 6.23367 10.4789 6.03153C10.2768 5.82938 10.0192 5.69172 9.73882 5.63595C9.45844 5.58018 9.16782 5.6088 8.9037 5.7182C8.63959 5.8276 8.41384 6.01287 8.25502 6.25056C8.09619 6.48826 8.01142 6.76772 8.01142 7.05359C8.01142 7.43694 8.16371 7.80459 8.43477 8.07565C8.70584 8.34672 9.07349 8.49901 9.45684 8.49901ZM9.45684 6.20369C9.56905 6.20441 9.67998 6.22756 9.7831 6.2718C9.88622 6.31604 9.97945 6.38046 10.0573 6.46127C10.1352 6.54209 10.196 6.63766 10.2364 6.74236C10.2768 6.84706 10.2958 6.95878 10.2923 7.07094C10.2777 7.24594 10.2144 7.41337 10.1097 7.55434C10.005 7.69532 9.86298 7.80424 9.69967 7.86881V7.1779H9.1215V7.86881C8.96256 7.80108 8.82651 7.68899 8.72961 7.54595C8.63271 7.40291 8.57908 7.23499 8.57513 7.06226C8.57626 6.94788 8.60001 6.83485 8.645 6.72968C8.69 6.62451 8.75535 6.52929 8.83731 6.44948C8.91926 6.36968 9.01619 6.30688 9.12252 6.26469C9.22884 6.22251 9.34246 6.20178 9.45684 6.20369ZM13.1687 8.49901C13.5033 8.49907 13.8277 8.383 14.0863 8.1706C14.3449 7.9582 14.5218 7.66264 14.5868 7.33434C14.6518 7.00604 14.6009 6.66536 14.4427 6.37043C14.2846 6.0755 14.0289 5.8446 13.7195 5.71713C13.41 5.58966 13.066 5.57352 12.7459 5.67146C12.4259 5.76941 12.1498 5.97537 11.9647 6.2542C11.7796 6.53303 11.697 6.86745 11.731 7.20039C11.765 7.53333 11.9135 7.84416 12.1511 8.07984C12.4217 8.34827 12.7875 8.49893 13.1687 8.49901ZM12.5616 6.45519C12.6727 6.34016 12.8135 6.25812 12.9684 6.21813C13.1233 6.17814 13.2862 6.18177 13.4392 6.2286C13.5921 6.27544 13.7291 6.36366 13.8351 6.48352C13.941 6.60338 14.0117 6.75019 14.0394 6.90774C14.0671 7.06528 14.0507 7.22741 13.9919 7.3762C13.9332 7.52499 13.8345 7.65464 13.7067 7.75082C13.5789 7.847 13.4269 7.90595 13.2677 7.92116C13.1085 7.93637 12.9481 7.90725 12.8044 7.83701L13.3826 7.25884L12.975 6.85123L12.3968 7.4294C12.3207 7.27039 12.2949 7.09198 12.3228 6.91793C12.3507 6.74389 12.431 6.58247 12.5529 6.45519H12.5616ZM16.8313 8.49901C17.166 8.49907 17.4903 8.383 17.749 8.1706C18.0076 7.9582 18.1845 7.66264 18.2495 7.33434C18.3145 7.00604 18.2636 6.66536 18.1054 6.37043C17.9472 6.0755 17.6916 5.8446 17.3822 5.71713C17.0727 5.58966 16.7286 5.57352 16.4086 5.67146C16.0886 5.76941 15.8125 5.97537 15.6274 6.2542C15.4423 6.53303 15.3597 6.86745 15.3937 7.20039C15.4277 7.53333 15.5762 7.84416 15.8138 8.07984C16.0823 8.34617 16.4445 8.49665 16.8227 8.49901H16.8313ZM16.2243 6.45519C16.3703 6.32486 16.5561 6.24776 16.7515 6.23642C16.9469 6.22507 17.1404 6.28015 17.3005 6.39271C17.4606 6.50526 17.5779 6.66867 17.6334 6.85636C17.6889 7.04405 17.6793 7.24499 17.6061 7.42651L17.0279 6.84834L16.6203 7.25595L17.1985 7.83412C17.017 7.9073 16.816 7.91694 16.6283 7.86146C16.4406 7.80597 16.2772 7.68863 16.1647 7.52851C16.0521 7.36839 15.997 7.17491 16.0084 6.97952C16.0197 6.78413 16.0968 6.59832 16.2272 6.4523L16.2243 6.45519Z" fill="#F5F5F5"/>
</g>
</svg>
