<svg width="30" height="30" viewBox="0 0 30 30" fill="none" xmlns="http://www.w3.org/2000/svg">
<g id="Layer_16">
<path id="Vector" d="M22.984 4.86523H7.37354V23.9447H8.81895V25.3901H11.4207V23.9447H18.9369V25.3901H21.5386V23.9447H22.984V4.86523ZM22.4058 5.4434V8.62331H7.9517V5.4434H22.4058ZM10.8425 24.812H9.39712V23.9447H10.8425V24.812ZM20.9604 24.812H19.515V23.9447H20.9604V24.812ZM7.9517 23.3665V9.20148H22.4058V23.3665H7.9517ZM15.1788 12.7919C14.4881 12.7919 13.8129 12.9967 13.2387 13.3804C12.6644 13.7641 12.2168 14.3095 11.9525 14.9476C11.6882 15.5857 11.619 16.2879 11.7538 16.9653C11.8885 17.6427 12.2211 18.2649 12.7095 18.7533C13.1979 19.2417 13.8201 19.5743 14.4975 19.709C15.1749 19.8438 15.877 19.7746 16.5152 19.5103C17.1533 19.246 17.6986 18.7984 18.0824 18.2241C18.4661 17.6499 18.6709 16.9747 18.6709 16.284C18.6694 15.3583 18.301 14.471 17.6464 13.8164C16.9918 13.1618 16.1045 12.7934 15.1788 12.7919ZM15.1788 19.2009C14.6026 19.2009 14.0393 19.03 13.5602 18.71C13.081 18.3899 12.7075 17.935 12.4869 17.4027C12.2663 16.8704 12.2084 16.2846 12.3206 15.7195C12.4328 15.1543 12.71 14.6351 13.1173 14.2274C13.5245 13.8198 14.0435 13.542 14.6085 13.4293C15.1736 13.3165 15.7594 13.3738 16.2919 13.5939C16.8244 13.814 17.2797 14.1871 17.6002 14.6659C17.9208 15.1447 18.0922 15.7078 18.0927 16.284C18.092 17.0566 17.7847 17.7973 17.2384 18.3436C16.6921 18.8899 15.9514 19.1972 15.1788 19.198V19.2009ZM18.6478 6.02157H15.7569V8.04515H18.6478V6.02157ZM18.0696 7.46698H16.3351V6.59973H18.0696V7.46698ZM21.8277 6.02157H19.2259V8.04515H21.8277V6.02157ZM21.2495 7.46698H19.8041V6.59973H21.2495V7.46698ZM20.8824 14.1882C20.8602 14.1868 20.838 14.1868 20.8159 14.1882C20.4314 13.1563 19.7716 12.2495 18.9081 11.5662C18.0446 10.8828 17.0104 10.4491 15.9178 10.3121C14.8252 10.1751 13.7159 10.3401 12.7104 10.789C11.7049 11.238 10.8416 11.9538 10.2143 12.8588C9.58694 13.7638 9.2195 14.8234 9.15186 15.9225C9.08422 17.0215 9.31897 18.1182 9.83061 19.0932C10.3423 20.0683 11.1112 20.8846 12.0541 21.4535C12.9969 22.0223 14.0776 22.3221 15.1788 22.3201C16.418 22.3065 17.6232 21.9128 18.6314 21.1921C19.6395 20.4713 20.4021 19.4584 20.8159 18.2902C21.2293 18.2902 21.8277 17.8248 21.8277 17.3941V15.1768C21.8323 15.0494 21.8114 14.9223 21.7661 14.8031C21.7207 14.6839 21.652 14.575 21.5639 14.4828C21.4757 14.3907 21.37 14.3171 21.253 14.2665C21.1359 14.2159 21.0099 14.1892 20.8824 14.1882ZM21.2495 15.1768V15.2722H20.3823V15.1768C20.3823 15.0618 20.428 14.9515 20.5093 14.8702C20.5906 14.7889 20.7009 14.7432 20.8159 14.7432C20.9309 14.7432 21.0412 14.7889 21.1225 14.8702C21.2038 14.9515 21.2495 15.0618 21.2495 15.1768ZM20.3823 16.7176H21.2495V17.0067H20.3823V16.7176ZM20.3823 16.1395H21.2495V16.4285H20.3823V16.1395ZM20.3823 15.8504V15.5613H21.2495V15.8504H20.3823ZM15.1788 21.7419C13.7534 21.7091 12.3974 21.1198 11.4009 20.1001C10.4044 19.0804 9.84649 17.7112 9.84649 16.2855C9.84649 14.8597 10.4044 13.4905 11.4009 12.4708C12.3974 11.4511 13.7534 10.8618 15.1788 10.829C16.2886 10.8261 17.3717 11.1688 18.2778 11.8096C19.1839 12.4505 19.8679 13.3576 20.2348 14.405C20.1112 14.4945 20.0086 14.61 19.9342 14.7433C19.8598 14.8766 19.8154 15.0246 19.8041 15.1768V17.3941C19.8158 17.5458 19.8604 17.6932 19.9348 17.826C20.0092 17.9588 20.1116 18.0738 20.2348 18.163C19.8684 19.211 19.1846 20.1187 18.2785 20.7601C17.3723 21.4015 16.2889 21.7446 15.1788 21.7419ZM20.8159 17.8017C20.7046 17.8026 20.5972 17.7603 20.5164 17.6838C20.4356 17.6072 20.3875 17.5024 20.3823 17.3912V17.2958H21.2495V17.3912C21.2443 17.5024 21.1962 17.6072 21.1154 17.6838C21.0345 17.7603 20.9272 17.8026 20.8159 17.8017Z" fill="#F5F5F5"/>
</g>
</svg>
