<svg width="33" height="33" viewBox="0 0 33 33" fill="none" xmlns="http://www.w3.org/2000/svg">
<g id="Layer_1">
<path id="Vector" d="M16.3423 11.3764L20.6165 15.5925C20.8722 15.8254 21 16.1426 21 16.492C21 16.8413 20.8722 17.1545 20.6165 17.3914L16.3423 21.6236C15.8352 22.1255 15.0085 22.1255 14.5014 21.6236C13.9943 21.1216 13.9943 20.3105 14.5014 19.8086L16.5554 17.7849H7.30824C6.58381 17.7849 6 17.2107 6 16.5C6 15.7893 6.58381 15.2151 7.30398 15.2151H16.5511L14.4972 13.1914C13.9901 12.6895 13.9901 11.8784 14.4972 11.3764C15.0085 10.8745 15.831 10.8745 16.3423 11.3764Z" fill="#4A4A4A"/>
</g>
</svg>
