<svg width="17" height="17" viewBox="0 0 17 17" fill="none" xmlns="http://www.w3.org/2000/svg">
<g id="Layer_2" clip-path="url(#clip0_309_639)">
<path id="Vector" d="M8.95666 16.8446C8.47829 16.8444 8.00072 16.8054 7.52866 16.728C5.21965 16.3491 3.15544 15.0693 1.78938 13.1695C0.423324 11.2698 -0.132875 8.90556 0.242943 6.59605C0.453243 5.28128 0.960084 4.03163 1.72505 2.94183C2.49002 1.85202 3.49304 0.950655 4.65808 0.306049C4.85464 0.196224 5.07861 0.145164 5.30334 0.158941C5.52808 0.172718 5.74413 0.250752 5.9258 0.383763C6.11149 0.510818 6.25626 0.689099 6.34249 0.896918C6.42872 1.10474 6.4527 1.33314 6.41151 1.55433L5.78008 1.50576L6.37751 1.61262C6.04045 3.40053 6.35543 5.25003 7.26529 6.82558C8.17515 8.40113 9.61963 9.59836 11.3367 10.2C12.6589 10.6589 14.0815 10.748 15.4507 10.4575C15.6673 10.415 15.8915 10.4338 16.098 10.5119C16.3046 10.59 16.4852 10.7242 16.6195 10.8994C16.7538 11.0746 16.8365 11.2839 16.8583 11.5036C16.88 11.7233 16.84 11.9447 16.7427 12.1429C15.9935 13.5593 14.8732 14.7451 13.5016 15.5733C12.13 16.4016 10.5589 16.841 8.95666 16.8446ZM5.18266 1.40376C4.25363 1.93054 3.44586 2.64694 2.81186 3.50638C2.17787 4.36583 1.73185 5.34908 1.50279 6.39221C1.27373 7.43534 1.26676 8.515 1.48235 9.561C1.69793 10.607 2.13123 11.5959 2.75409 12.4635C3.5048 13.5129 4.51013 14.354 5.6755 14.9079C6.84086 15.4617 8.12796 15.71 9.41571 15.6293C10.7035 15.5487 11.9495 15.1418 13.0367 14.4469C14.1239 13.752 15.0164 12.792 15.6304 11.6572C14.0681 11.9712 12.4504 11.864 10.9432 11.3463C8.95461 10.6491 7.28091 9.26361 6.22448 7.44023C5.16804 5.61685 4.79851 3.47577 5.18266 1.40376Z" fill="#F5F5F5"/>
</g>
<defs>
<clipPath id="clip0_309_639">
<rect width="17" height="17" fill="white"/>
</clipPath>
</defs>
</svg>
