<svg width="24" height="24" viewBox="0 0 24 24" fill="none" xmlns="http://www.w3.org/2000/svg">
<g id="Page-1">
<g id="camera">
<path id="Shape" d="M0.846816 24H23.1325C23.6076 24 23.9793 23.6282 23.9793 23.1532V12V0.846816C23.9793 0.371773 23.6076 0 23.1325 0H0.846816C0.371773 0 0 0.371773 0 0.846816V12V23.1532C0 23.6076 0.392427 24 0.846816 24ZM7.51807 1.69363H22.2857V11.1532H18.0929C17.6799 8.15835 15.0981 5.82444 12 5.82444C10.2444 5.82444 8.65404 6.56799 7.51807 7.76592V1.69363ZM12 7.51807C14.4578 7.51807 16.4819 9.52151 16.4819 12C16.4819 14.4785 14.4785 16.4819 12 16.4819C9.52151 16.4819 7.51807 14.4785 7.51807 12C7.51807 9.52151 9.54217 7.51807 12 7.51807ZM1.69363 1.69363H5.82444V11.1532H1.69363V1.69363ZM1.69363 12.8468H5.90706C6.32014 15.8417 8.90189 18.1756 12 18.1756C15.0981 18.1756 17.6799 15.8417 18.0929 12.8468H22.2857V22.3064H1.69363V12.8468Z" fill="#F5F5F5"/>
<path id="Shape_2" d="M16.5026 5.51443H18.6919C19.167 5.51443 19.5387 5.14266 19.5387 4.66762C19.5387 4.19257 19.167 3.8208 18.6919 3.8208H16.5026C16.0275 3.8208 15.6558 4.19257 15.6558 4.66762C15.6558 5.14266 16.0275 5.51443 16.5026 5.51443Z" fill="#F5F5F5"/>
<path id="Shape_3" d="M12 15.2013C13.7762 15.2013 15.2013 13.7556 15.2013 12C15.2013 10.2444 13.7762 8.79858 12 8.79858C10.2237 8.79858 8.79858 10.2237 8.79858 12C8.79858 13.7762 10.2237 15.2013 12 15.2013ZM12 10.4716C12.8468 10.4716 13.5284 11.1531 13.5284 12C13.5284 12.8468 12.8468 13.5284 12 13.5284C11.1531 13.5284 10.4716 12.8468 10.4716 12C10.4716 11.1531 11.1531 10.4716 12 10.4716Z" fill="#F5F5F5"/>
</g>
</g>
</svg>
