<svg width="22" height="23" viewBox="0 0 22 23" fill="none" xmlns="http://www.w3.org/2000/svg">
<g id="Frame">
<g id="Layer 2">
<path id="Vector" d="M1.4149 21.2668L10.678 15.4652L20.0212 21.2579L17.9657 10.4554V4.30675H19.5763V2.5271H1.77973V4.30675H3.4793V10.4554L1.4149 21.2668ZM3.92421 17.6008L5.0009 11.9326L9.01402 14.4241L3.92421 17.6008ZM5.25006 7.31436L8.00852 8.31097L5.24116 9.30757L5.25006 7.31436ZM16.186 9.33427L13.3475 8.31097L16.2127 7.28767L16.186 9.33427ZM14.878 10.758L10.678 13.3652L6.48691 10.7491L10.678 9.25418L14.878 10.758ZM12.3776 14.4152L16.4352 11.8792L17.5119 17.6097L12.3776 14.4152ZM16.186 4.30675V5.40124L10.678 7.36775L5.25006 5.42793V4.30675H16.186Z" fill="#F5F5F5"/>
</g>
</g>
</svg>
