<svg width="26" height="26" viewBox="0 0 26 26" fill="none" xmlns="http://www.w3.org/2000/svg">
<g id="Frame">
<g id="Layer_2">
<g id="Group">
<path id="Vector" d="M13 3.25C7.62125 3.25 3.25 7.62125 3.25 13C3.25 18.3787 7.62125 22.75 13 22.75C18.3787 22.75 22.75 18.3787 22.75 13C22.75 7.62125 18.3787 3.25 13 3.25ZM13 21.125C8.515 21.125 4.875 17.485 4.875 13C4.875 8.515 8.515 4.875 13 4.875C17.485 4.875 21.125 8.515 21.125 13C21.125 17.485 17.485 21.125 13 21.125Z" fill="#E9E9E9"/>
<path id="Vector_2" d="M13.6988 7.39373C12.1388 7.00373 10.4 7.99498 9.92875 9.52248C9.7825 9.96123 10.0263 10.4162 10.4488 10.5462C10.8713 10.6762 11.3263 10.4487 11.4725 10.01C11.7 9.29498 12.5775 8.79123 13.325 8.96998C14.0563 9.14873 14.6088 10.01 14.4625 10.7575C14.3325 11.505 13.5363 12.1062 12.7725 12.0087C12.545 11.9762 12.3013 12.0575 12.1388 12.2037C11.96 12.3662 11.8625 12.5775 11.8625 12.8212L11.8463 15.3562C11.8463 15.8112 12.2038 16.1687 12.6588 16.1687C13.1138 16.1687 13.4713 15.8112 13.4713 15.3562L13.4875 13.585C14.7388 13.3412 15.8438 12.3175 16.0713 11.0337C16.3638 9.45748 15.275 7.78373 13.6988 7.39373Z" fill="#E9E9E9"/>
<path id="Vector_3" d="M12.6913 16.8838H12.675C12.2363 16.8838 11.8788 17.2575 11.8625 17.6963C11.8625 17.7125 11.8625 17.8588 11.8625 17.875C11.8625 18.3138 12.22 18.6063 12.6588 18.6225H12.675C13.1138 18.6225 13.4713 18.2163 13.4875 17.7775C13.4875 17.7613 13.4875 17.6638 13.4875 17.6475C13.4713 17.2088 13.13 16.8838 12.6913 16.8838Z" fill="#E9E9E9"/>
</g>
</g>
</g>
</svg>
