<svg width="24" height="24" viewBox="0 0 24 24" fill="none" xmlns="http://www.w3.org/2000/svg">
<g id="Page-1">
<g id="graph">
<path id="Shape" d="M23.1525 22.3049H1.69509V0.847545C1.69509 0.372093 1.323 0 0.847545 0C0.372093 0 0 0.372093 0 0.847545V23.1525C0 23.6279 0.372093 24 0.847545 24H23.1525C23.6279 24 24 23.6279 24 23.1525C24 22.677 23.6279 22.3049 23.1525 22.3049Z" fill="#F5F5F5"/>
<path id="Shape_2" d="M9.90176 19.0388V6.84242C9.90176 6.36697 9.52966 5.99487 9.05421 5.99487C8.57876 5.99487 8.20667 6.36697 8.20667 6.84242V19.0388C8.20667 19.5143 8.57876 19.8863 9.05421 19.8863C9.52966 19.8863 9.90176 19.5143 9.90176 19.0388Z" fill="#E9E9E9"/>
<path id="Shape_3" d="M5.80886 19.0388V6.84242C5.80886 6.36697 5.43677 5.99487 4.96131 5.99487C4.48586 5.99487 4.11377 6.36697 4.11377 6.84242V19.0388C4.11377 19.5143 4.48586 19.8863 4.96131 19.8863C5.43677 19.8863 5.80886 19.5143 5.80886 19.0388Z" fill="#E9E9E9"/>
<path id="Shape_4" d="M18.0878 19.0388V6.84242C18.0878 6.36697 17.7157 5.99487 17.2402 5.99487C16.7648 5.99487 16.3927 6.36697 16.3927 6.84242V19.0388C16.3927 19.5143 16.7648 19.8863 17.2402 19.8863C17.7157 19.8863 18.0878 19.5143 18.0878 19.0388Z" fill="#E9E9E9"/>
<path id="Shape_5" d="M22.1809 19.0388V12.9406C22.1809 12.4651 21.8088 12.093 21.3334 12.093C20.8579 12.093 20.4858 12.4651 20.4858 12.9406V19.0388C20.4858 19.5142 20.8579 19.8863 21.3334 19.8863C21.8088 19.8863 22.1809 19.5142 22.1809 19.0388Z" fill="#E9E9E9"/>
<path id="Shape_6" d="M13.9948 19.0388V12.9406C13.9948 12.4651 13.6227 12.093 13.1472 12.093C12.6718 12.093 12.2997 12.4651 12.2997 12.9406V19.0388C12.2997 19.5142 12.6718 19.8863 13.1472 19.8863C13.6227 19.8863 13.9948 19.5142 13.9948 19.0388Z" fill="#E9E9E9"/>
</g>
</g>
</svg>
