<svg width="25" height="22" viewBox="0 0 25 22" fill="none" xmlns="http://www.w3.org/2000/svg">
<g id="Frame" clip-path="url(#clip0_309_737)">
<path id="Vector" d="M21.3147 11.2194H22.0947H23.4294C23.7222 11.2194 23.9876 10.9665 23.9876 10.6571V10.6098L23.9933 10.5629C23.9978 10.5267 23.9936 10.4966 23.9748 10.4567C23.9525 10.4095 23.9022 10.3352 23.794 10.2404L23.7926 10.2392L13.1566 0.886959C13.0745 0.823357 12.9345 0.776576 12.7766 0.776576C12.6639 0.776576 12.5935 0.785479 12.5413 0.801169C12.4985 0.814038 12.4569 0.834524 12.4086 0.882925L12.3895 0.902024L12.3692 0.919754L1.69786 10.2215C1.56878 10.3567 1.5238 10.487 1.5238 10.6571C1.5238 10.981 1.76296 11.2194 2.08405 11.2194H3.42045H4.19703V11.996V18.6864C4.19703 19.7301 5.04501 20.5793 6.09035 20.5793H8.98621L8.39175 19.5879C8.19112 19.2719 8.11694 18.9095 8.18978 18.5529C8.26094 18.2044 8.45873 17.9248 8.69067 17.7276L8.69665 17.7225L8.69667 17.7226L11.7042 15.2181L9.62121 12.3531C9.62115 12.353 9.6211 12.353 9.62104 12.3529L9.62078 12.3525L10.2489 11.8959C9.79008 11.266 10.5534 10.4986 11.1999 10.9782L21.3147 11.2194ZM21.3147 11.2194L21.3181 11.9994L21.3473 18.676M21.3147 11.2194L21.3473 18.676M21.3473 18.676C21.3473 18.6763 21.3473 18.6766 21.3473 18.6769C21.3498 19.7286 20.4999 20.5793 19.4544 20.5793H14.8012M21.3473 18.676L14.8012 20.5793M14.8012 20.5793L13.7681 18.8573L14.8012 20.5793Z" stroke="#F5F5F5" stroke-width="1.55315"/>
</g>
<defs>
<clipPath id="clip0_309_737">
<rect width="24.0253" height="21.3558" fill="white" transform="translate(0.747223)"/>
</clipPath>
</defs>
</svg>
