<svg width="19" height="19" viewBox="0 0 19 19" fill="none" xmlns="http://www.w3.org/2000/svg">
<g id="Frame" clip-path="url(#clip0_309_644)">
<g id="Layer 31">
<path id="Vector" d="M15.9712 16.1279H3.59618C3.5003 16.1276 3.40608 16.1028 3.32247 16.0559C3.23886 16.0089 3.16865 15.9414 3.11849 15.8597C3.06833 15.778 3.03989 15.6848 3.03588 15.589C3.03186 15.4932 3.05241 15.3979 3.09556 15.3123C3.78961 13.9134 4.15332 12.3739 4.15868 10.8123V8.81543C4.15868 7.32359 4.75132 5.89285 5.80621 4.83795C6.8611 3.78306 8.29184 3.19043 9.78368 3.19043C11.2755 3.19043 12.7063 3.78306 13.7612 4.83795C14.8161 5.89285 15.4087 7.32359 15.4087 8.81543V10.8011C15.414 12.3626 15.7778 13.9022 16.4718 15.3011C16.5176 15.3871 16.5403 15.4835 16.5376 15.5809C16.5349 15.6784 16.507 15.7734 16.4565 15.8568C16.406 15.9401 16.3348 16.009 16.2497 16.0565C16.1646 16.104 16.0686 16.1286 15.9712 16.1279ZM4.46806 15.0029H15.0993C14.5629 13.6669 14.2861 12.2408 14.2837 10.8011V8.81543C14.2837 7.62195 13.8096 6.47736 12.9657 5.63345C12.1217 4.78954 10.9772 4.31543 9.78368 4.31543C8.59021 4.31543 7.44562 4.78954 6.6017 5.63345C5.75779 6.47736 5.28368 7.62195 5.28368 8.81543V10.8011C5.28128 12.2408 5.00446 13.6669 4.46806 15.0029Z" fill="#F5F5F5"/>
<path id="Vector_2" d="M9.78368 18.3779C9.03775 18.3779 8.32238 18.0816 7.79494 17.5542C7.26749 17.0267 6.97118 16.3114 6.97118 15.5654C6.97118 15.4162 7.03044 15.2732 7.13593 15.1677C7.24142 15.0622 7.38449 15.0029 7.53368 15.0029C7.68286 15.0029 7.82593 15.0622 7.93142 15.1677C8.03691 15.2732 8.09618 15.4162 8.09618 15.5654C8.09657 16.0128 8.27462 16.4418 8.59118 16.7579C8.91308 17.0634 9.33992 17.2336 9.78368 17.2336C10.2274 17.2336 10.6543 17.0634 10.9762 16.7579C11.0286 16.7055 11.0909 16.6639 11.1594 16.6355C11.2279 16.6071 11.3014 16.5925 11.3756 16.5925C11.4497 16.5925 11.5232 16.6071 11.5917 16.6355C11.6602 16.6639 11.7225 16.7055 11.7749 16.7579C11.8274 16.8104 11.869 16.8726 11.8974 16.9412C11.9257 17.0097 11.9404 17.0831 11.9404 17.1573C11.9404 17.2315 11.9257 17.3049 11.8974 17.3734C11.869 17.442 11.8274 17.5042 11.7749 17.5567C11.5133 17.8177 11.2027 18.0246 10.861 18.1655C10.5194 18.3064 10.1533 18.3786 9.78368 18.3779Z" fill="#F5F5F5"/>
<path id="Vector_3" d="M9.78365 4.31543C9.63446 4.31543 9.49139 4.25617 9.3859 4.15068C9.28041 4.04519 9.22115 3.90211 9.22115 3.75293V2.06543C9.22115 1.91625 9.28041 1.77317 9.3859 1.66768C9.49139 1.56219 9.63446 1.50293 9.78365 1.50293C9.93283 1.50293 10.0759 1.56219 10.1814 1.66768C10.2869 1.77317 10.3461 1.91625 10.3461 2.06543V3.75293C10.3461 3.90211 10.2869 4.04519 10.1814 4.15068C10.0759 4.25617 9.93283 4.31543 9.78365 4.31543Z" fill="#F5F5F5"/>
<path id="Vector_4" d="M15.4087 3.75293C15.1862 3.75293 14.9687 3.68695 14.7837 3.56333C14.5987 3.43972 14.4545 3.26402 14.3693 3.05845C14.2842 2.85288 14.2619 2.62668 14.3053 2.40845C14.3487 2.19022 14.4559 1.98977 14.6132 1.83244C14.7705 1.6751 14.971 1.56796 15.1892 1.52455C15.4075 1.48114 15.6337 1.50342 15.8392 1.58857C16.0448 1.67371 16.2205 1.81791 16.3441 2.00291C16.4677 2.18792 16.5337 2.40543 16.5337 2.62793C16.5337 2.9263 16.4152 3.21245 16.2042 3.42343C15.9932 3.6344 15.7071 3.75293 15.4087 3.75293Z" fill="#F5F5F5"/>
</g>
</g>
<defs>
<clipPath id="clip0_309_644">
<rect width="18" height="18" fill="white" transform="translate(0.783691 0.94043)"/>
</clipPath>
</defs>
</svg>
