<svg width="24" height="24" viewBox="0 0 24 24" fill="none" xmlns="http://www.w3.org/2000/svg">
<g id="Page-1">
<g id="clock">
<path id="Shape" d="M12 24C18.6321 24 24 18.6114 24 12C24 5.36788 18.6114 0 12 0C5.3886 0 0 5.36788 0 12C0 18.6114 5.36788 24 12 24ZM12 1.67876C17.6995 1.67876 22.3212 6.30052 22.3212 12C22.3212 17.6995 17.6995 22.3212 12 22.3212C6.30052 22.3212 1.67876 17.6788 1.67876 12C1.67876 6.30052 6.30052 1.67876 12 1.67876Z" fill="#F5F5F5"/>
<path id="Shape_2" d="M11.4403 13.4094H15.4403C15.917 13.4094 16.2901 13.0363 16.2901 12.5596C16.2901 12.0829 15.917 11.7099 15.4403 11.7099H12.2901V6.77723C12.2901 6.30055 11.917 5.92749 11.4403 5.92749C10.9636 5.92749 10.5906 6.30055 10.5906 6.77723V12.5596C10.5906 13.0363 10.9636 13.4094 11.4403 13.4094Z" fill="#F5F5F5"/>
</g>
</g>
</svg>
