<svg width="23" height="23" viewBox="0 0 23 23" fill="none" xmlns="http://www.w3.org/2000/svg">
<g id="Frame">
<g id="Layer 10">
<path id="Vector" d="M11.9187 21.7187H10.5188C10.0028 21.7224 9.50359 21.5361 9.11627 21.1953C8.72896 20.8544 8.48066 20.3829 8.41876 19.8707C7.94901 19.7222 7.49244 19.5349 7.05377 19.3107C6.64759 19.6319 6.13708 19.7917 5.62027 19.7594C5.10346 19.7271 4.61681 19.505 4.25379 19.1357L3.30179 18.1487C2.93254 17.7857 2.71044 17.299 2.67814 16.7822C2.64584 16.2654 2.80562 15.7549 3.12679 15.3487C2.90434 14.9213 2.71705 14.4765 2.5668 14.0187C2.05459 13.9568 1.58309 13.7085 1.24225 13.3212C0.901408 12.9339 0.715078 12.4347 0.718805 11.9187V10.5188C0.715078 10.0028 0.901408 9.50359 1.24225 9.11627C1.58309 8.72896 2.05459 8.48066 2.5668 8.41876C2.71526 7.94901 2.90257 7.49244 3.12679 7.05377C2.80562 6.64759 2.64584 6.13708 2.67814 5.62027C2.71044 5.10346 2.93254 4.61681 3.30179 4.25379L4.28879 3.30179C4.65181 2.93254 5.13846 2.71044 5.65527 2.67814C6.17208 2.64584 6.68259 2.80562 7.08877 3.12679C7.51617 2.90434 7.96097 2.71705 8.41876 2.5668C8.48066 2.05459 8.72896 1.58309 9.11627 1.24225C9.50359 0.901408 10.0028 0.715078 10.5188 0.718805H11.9187C12.4347 0.715078 12.9339 0.901408 13.3212 1.24225C13.7085 1.58309 13.9568 2.05459 14.0187 2.5668C14.4885 2.71526 14.9451 2.90257 15.3837 3.12679C15.7899 2.80562 16.3004 2.64584 16.8172 2.67814C17.334 2.71044 17.8207 2.93254 18.1837 3.30179L19.1357 4.28879C19.505 4.65181 19.7271 5.13846 19.7594 5.65527C19.7917 6.17208 19.6319 6.68259 19.3107 7.08877C19.5349 7.52744 19.7222 7.98401 19.8707 8.45376C20.3769 8.51493 20.8436 8.7582 21.1837 9.13817C21.5237 9.51815 21.7139 10.0089 21.7187 10.5188V11.9187C21.7224 12.4347 21.5361 12.9339 21.1953 13.3212C20.8544 13.7085 20.3829 13.9568 19.8707 14.0187C19.7222 14.4885 19.5349 14.9451 19.3107 15.3837C19.6319 15.7899 19.7917 16.3004 19.7594 16.8172C19.7271 17.334 19.505 17.8207 19.1357 18.1837L18.1487 19.1357C17.7857 19.505 17.299 19.7271 16.7822 19.7594C16.2654 19.7917 15.7549 19.6319 15.3487 19.3107C14.9101 19.5349 14.4535 19.7222 13.9837 19.8707C13.9226 20.3769 13.6793 20.8436 13.2993 21.1837C12.9194 21.5237 12.4286 21.7139 11.9187 21.7187ZM6.95577 17.7497C7.0817 17.7475 7.2056 17.7816 7.31277 17.8477C7.93168 18.2117 8.59847 18.4874 9.29376 18.6667C9.44777 18.7064 9.58368 18.7973 9.67911 18.9246C9.77453 19.0518 9.82379 19.2077 9.81876 19.3667V19.6187C9.81876 19.8044 9.89251 19.9824 10.0238 20.1137C10.1551 20.245 10.3331 20.3187 10.5188 20.3187H11.9187C12.1044 20.3187 12.2824 20.245 12.4137 20.1137C12.545 19.9824 12.6187 19.8044 12.6187 19.6187V19.3457C12.6137 19.1867 12.663 19.0308 12.7584 18.9036C12.8538 18.7763 12.9897 18.6854 13.1437 18.6457C13.839 18.4664 14.5058 18.1907 15.1247 17.8267C15.2577 17.7484 15.4129 17.7162 15.5661 17.7352C15.7193 17.7542 15.8619 17.8233 15.9717 17.9317L16.1677 18.1277C16.2328 18.1933 16.3102 18.2454 16.3955 18.2809C16.4808 18.3165 16.5723 18.3348 16.6647 18.3348C16.7571 18.3348 16.8486 18.3165 16.9339 18.2809C17.0192 18.2454 17.0966 18.1933 17.1617 18.1277L18.1487 17.1407C18.2143 17.0756 18.2664 16.9982 18.3019 16.9129C18.3375 16.8276 18.3558 16.7361 18.3558 16.6437C18.3558 16.5513 18.3375 16.4598 18.3019 16.3745C18.2664 16.2892 18.2143 16.2118 18.1487 16.1467L17.9527 15.9507C17.8443 15.8409 17.7752 15.6983 17.7562 15.5451C17.7372 15.3919 17.7694 15.2367 17.8477 15.1037C18.2117 14.4848 18.4874 13.818 18.6667 13.1227C18.7064 12.9687 18.7973 12.8328 18.9246 12.7374C19.0518 12.642 19.2077 12.5927 19.3667 12.5977H19.6187C19.8044 12.5977 19.9824 12.524 20.1137 12.3927C20.245 12.2614 20.3187 12.0834 20.3187 11.8977V10.5188C20.3187 10.3331 20.245 10.1551 20.1137 10.0238C19.9824 9.89251 19.8044 9.81876 19.6187 9.81876H19.3457C19.1867 9.82379 19.0308 9.77453 18.9036 9.67911C18.7763 9.58368 18.6854 9.44777 18.6457 9.29376C18.4664 8.59847 18.1907 7.93168 17.8267 7.31277C17.7484 7.17977 17.7162 7.0246 17.7352 6.87142C17.7542 6.71824 17.8233 6.57562 17.9317 6.46578L18.1277 6.26978C18.1933 6.2047 18.2454 6.12728 18.2809 6.04198C18.3165 5.95668 18.3348 5.86519 18.3348 5.77278C18.3348 5.68037 18.3165 5.58888 18.2809 5.50358C18.2454 5.41828 18.1933 5.34086 18.1277 5.27578L17.1617 4.28879C17.0966 4.22318 17.0192 4.1711 16.9339 4.13556C16.8486 4.10003 16.7571 4.08173 16.6647 4.08173C16.5723 4.08173 16.4808 4.10003 16.3955 4.13556C16.3102 4.1711 16.2328 4.22318 16.1677 4.28879L15.9717 4.48479C15.8619 4.59322 15.7193 4.66231 15.5661 4.6813C15.4129 4.70029 15.2577 4.66812 15.1247 4.58978C14.5058 4.22576 13.839 3.95009 13.1437 3.77079C12.9897 3.73111 12.8538 3.64016 12.7584 3.51293C12.663 3.38569 12.6137 3.22976 12.6187 3.07079V2.81879C12.6187 2.63314 12.545 2.4551 12.4137 2.32382C12.2824 2.19255 12.1044 2.1188 11.9187 2.1188H10.5188C10.3331 2.1188 10.1551 2.19255 10.0238 2.32382C9.89251 2.4551 9.81876 2.63314 9.81876 2.81879V3.09179C9.82379 3.25076 9.77453 3.40669 9.67911 3.53393C9.58368 3.66116 9.44777 3.75211 9.29376 3.79179C8.59847 3.97109 7.93168 4.24676 7.31277 4.61078C7.17977 4.68912 7.0246 4.72129 6.87142 4.7023C6.71824 4.68331 6.57562 4.61422 6.46578 4.50578L6.26978 4.28879C6.2047 4.22318 6.12728 4.1711 6.04198 4.13556C5.95668 4.10003 5.86519 4.08173 5.77278 4.08173C5.68037 4.08173 5.58888 4.10003 5.50358 4.13556C5.41828 4.1711 5.34086 4.22318 5.27578 4.28879L4.28879 5.27578C4.22318 5.34086 4.1711 5.41828 4.13556 5.50358C4.10003 5.58888 4.08173 5.68037 4.08173 5.77278C4.08173 5.86519 4.10003 5.95668 4.13556 6.04198C4.1711 6.12728 4.22318 6.2047 4.28879 6.26978L4.48479 6.46578C4.59322 6.57562 4.66231 6.71824 4.6813 6.87142C4.70029 7.0246 4.66812 7.17977 4.58978 7.31277C4.22576 7.93168 3.95009 8.59847 3.77079 9.29376C3.73111 9.44777 3.64016 9.58368 3.51293 9.67911C3.38569 9.77453 3.22976 9.82379 3.07079 9.81876H2.81879C2.63314 9.81876 2.4551 9.89251 2.32382 10.0238C2.19255 10.1551 2.1188 10.3331 2.1188 10.5188V11.9187C2.1188 12.1044 2.19255 12.2824 2.32382 12.4137C2.4551 12.545 2.63314 12.6187 2.81879 12.6187H3.09179C3.25076 12.6137 3.40669 12.663 3.53393 12.7584C3.66116 12.8538 3.75211 12.9897 3.79179 13.1437C3.97109 13.839 4.24676 14.5058 4.61078 15.1247C4.68912 15.2577 4.72129 15.4129 4.7023 15.5661C4.68331 15.7193 4.61422 15.8619 4.50578 15.9717L4.30979 16.1677C4.24418 16.2328 4.1921 16.3102 4.15656 16.3955C4.12102 16.4808 4.10273 16.5723 4.10273 16.6647C4.10273 16.7571 4.12102 16.8486 4.15656 16.9339C4.1921 17.0192 4.24418 17.0966 4.30979 17.1617L5.27578 18.1487C5.34086 18.2143 5.41828 18.2664 5.50358 18.3019C5.58888 18.3375 5.68037 18.3558 5.77278 18.3558C5.86519 18.3558 5.95668 18.3375 6.04198 18.3019C6.12728 18.2664 6.2047 18.2143 6.26978 18.1487L6.46578 17.9527C6.59616 17.8234 6.77214 17.7505 6.95577 17.7497Z" fill="#E9E9E9"/>
<path id="Vector_2" d="M11.2187 16.1186C10.2496 16.1186 9.30222 15.8312 8.49642 15.2928C7.69063 14.7543 7.06258 13.9891 6.69172 13.0937C6.32085 12.1984 6.22381 11.2131 6.41288 10.2626C6.60195 9.31214 7.06862 8.43905 7.7539 7.75378C8.43917 7.0685 9.31226 6.60182 10.2628 6.41276C11.2133 6.22369 12.1985 6.32073 13.0938 6.69159C13.9892 7.06246 14.7545 7.6905 15.2929 8.4963C15.8313 9.3021 16.1187 10.2495 16.1187 11.2186C16.1187 12.5181 15.6024 13.7645 14.6835 14.6834C13.7646 15.6023 12.5183 16.1186 11.2187 16.1186ZM11.2187 7.7186C10.5265 7.7186 9.84979 7.92387 9.27422 8.30845C8.69865 8.69303 8.25005 9.23966 7.98514 9.8792C7.72023 10.5187 7.65092 11.2225 7.78597 11.9014C7.92102 12.5803 8.25436 13.204 8.74384 13.6934C9.23332 14.1829 9.85696 14.5163 10.5359 14.6513C11.2148 14.7864 11.9185 14.717 12.5581 14.4521C13.1976 14.1872 13.7442 13.7386 14.1288 13.1631C14.5134 12.5875 14.7187 11.9108 14.7187 11.2186C14.7187 10.2903 14.3499 9.40009 13.6936 8.74372C13.0372 8.08735 12.147 7.7186 11.2187 7.7186Z" fill="#E9E9E9"/>
</g>
</g>
</svg>
