<svg width="16" height="17" viewBox="0 0 16 17" fill="none" xmlns="http://www.w3.org/2000/svg">
<g id="Frame">
<path id="Vector" d="M11.8908 14.2125H4.05121C3.53141 14.2125 3.0329 14.006 2.66535 13.6385C2.2978 13.2709 2.09131 12.7724 2.09131 12.2526V4.41303C2.09131 3.89323 2.2978 3.39472 2.66535 3.02717C3.0329 2.65961 3.53141 2.45313 4.05121 2.45312H6.66441C6.83768 2.45313 7.00385 2.52195 7.12637 2.64447C7.24888 2.76699 7.31771 2.93316 7.31771 3.10643C7.31771 3.27969 7.24888 3.44586 7.12637 3.56838C7.00385 3.6909 6.83768 3.75973 6.66441 3.75973H4.05121C3.87794 3.75973 3.71177 3.82856 3.58926 3.95107C3.46674 4.07359 3.39791 4.23976 3.39791 4.41303V12.2526C3.39791 12.4259 3.46674 12.5921 3.58926 12.7146C3.71177 12.8371 3.87794 12.9059 4.05121 12.9059H11.8908C12.0641 12.9059 12.2303 12.8371 12.3528 12.7146C12.4753 12.5921 12.5441 12.4259 12.5441 12.2526V9.63943C12.5441 9.46616 12.6129 9.3 12.7355 9.17748C12.858 9.05496 13.0242 8.98613 13.1974 8.98613C13.3707 8.98613 13.5369 9.05496 13.6594 9.17748C13.7819 9.3 13.8507 9.46616 13.8507 9.63943V12.2526C13.8507 12.7724 13.6442 13.2709 13.2767 13.6385C12.9091 14.006 12.4106 14.2125 11.8908 14.2125Z" fill="#575757"/>
<path id="Vector_2" d="M13.8508 3.1391V6.40561C13.8501 6.53458 13.8113 6.66049 13.7392 6.76744C13.6672 6.8744 13.565 6.95763 13.4457 7.00664C13.3682 7.04322 13.2832 7.06111 13.1975 7.05891C13.1115 7.0594 13.0263 7.04292 12.9467 7.01041C12.8671 6.9779 12.7947 6.93 12.7336 6.86945L11.5316 5.71964L8.40224 8.84895C8.34151 8.91018 8.26925 8.95878 8.18964 8.99195C8.11003 9.02512 8.02464 9.0422 7.9384 9.0422C7.85216 9.0422 7.76677 9.02512 7.68716 8.99195C7.60754 8.95878 7.53529 8.91018 7.47456 8.84895C7.41332 8.78822 7.36472 8.71596 7.33155 8.63635C7.29839 8.55674 7.28131 8.47135 7.28131 8.38511C7.28131 8.29886 7.29839 8.21347 7.33155 8.13386C7.36472 8.05425 7.41332 7.982 7.47456 7.92126L10.5843 4.77236L9.43446 3.60295C9.3405 3.51328 9.2754 3.39765 9.24747 3.27081C9.21955 3.14397 9.23006 3.01169 9.27767 2.89085C9.32977 2.76295 9.42106 2.65485 9.53844 2.58208C9.65582 2.5093 9.79324 2.4756 9.93097 2.4858H13.1975C13.2515 2.47641 13.3068 2.47641 13.3608 2.4858C13.391 2.47998 13.422 2.47998 13.4523 2.4858C13.5306 2.51668 13.6018 2.56336 13.6614 2.62292C13.721 2.68249 13.7676 2.75368 13.7985 2.83205C13.8043 2.86226 13.8043 2.89331 13.7985 2.92351C13.8326 2.99027 13.8505 3.06413 13.8508 3.1391Z" fill="#575757"/>
</g>
</svg>
