<svg width="30" height="30" viewBox="0 0 30 30" fill="none" xmlns="http://www.w3.org/2000/svg">
<g id="Frame">
<path id="Vector" d="M22.5 26.25H7.5C6.50544 26.25 5.55161 25.8549 4.84835 25.1517C4.14509 24.4484 3.75 23.4946 3.75 22.5V7.5C3.75 6.50544 4.14509 5.55161 4.84835 4.84835C5.55161 4.14509 6.50544 3.75 7.5 3.75H12.5C12.8315 3.75 13.1495 3.8817 13.3839 4.11612C13.6183 4.35054 13.75 4.66848 13.75 5C13.75 5.33152 13.6183 5.64946 13.3839 5.88388C13.1495 6.1183 12.8315 6.25 12.5 6.25H7.5C7.16848 6.25 6.85054 6.3817 6.61612 6.61612C6.3817 6.85054 6.25 7.16848 6.25 7.5V22.5C6.25 22.8315 6.3817 23.1495 6.61612 23.3839C6.85054 23.6183 7.16848 23.75 7.5 23.75H22.5C22.8315 23.75 23.1495 23.6183 23.3839 23.3839C23.6183 23.1495 23.75 22.8315 23.75 22.5V17.5C23.75 17.1685 23.8817 16.8505 24.1161 16.6161C24.3505 16.3817 24.6685 16.25 25 16.25C25.3315 16.25 25.6495 16.3817 25.8839 16.6161C26.1183 16.8505 26.25 17.1685 26.25 17.5V22.5C26.25 23.4946 25.8549 24.4484 25.1517 25.1517C24.4484 25.8549 23.4946 26.25 22.5 26.25Z" fill="#F5F5F5"/>
<path id="Vector_2" d="M26.25 5.06255V11.3126C26.2488 11.5593 26.1746 11.8002 26.0366 12.0049C25.8987 12.2095 25.7033 12.3688 25.475 12.4626C25.3267 12.5325 25.164 12.5668 25 12.5626C24.8355 12.5635 24.6725 12.532 24.5202 12.4698C24.3679 12.4076 24.2293 12.3159 24.1125 12.2001L21.8125 10L15.825 15.9876C15.7088 16.1047 15.5706 16.1977 15.4183 16.2612C15.2659 16.3246 15.1026 16.3573 14.9375 16.3573C14.7725 16.3573 14.6091 16.3246 14.4568 16.2612C14.3045 16.1977 14.1662 16.1047 14.05 15.9876C13.9329 15.8713 13.8399 15.7331 13.7764 15.5808C13.713 15.4284 13.6803 15.2651 13.6803 15.1001C13.6803 14.935 13.713 14.7717 13.7764 14.6193C13.8399 14.467 13.9329 14.3288 14.05 14.2126L20 8.18755L17.8 5.95005C17.6203 5.77849 17.4957 5.55723 17.4423 5.31455C17.3888 5.07186 17.409 4.81875 17.5 4.58755C17.5997 4.34283 17.7744 4.136 17.999 3.99675C18.2236 3.85751 18.4865 3.79302 18.75 3.81255H25C25.1034 3.79458 25.2092 3.79458 25.3125 3.81255C25.3703 3.80141 25.4297 3.80141 25.4875 3.81255C25.6375 3.87163 25.7737 3.96094 25.8877 4.07491C26.0017 4.18888 26.091 4.32509 26.15 4.47505C26.1612 4.53285 26.1612 4.59225 26.15 4.65005C26.2153 4.77778 26.2496 4.9191 26.25 5.06255Z" fill="#F5F5F5"/>
</g>
</svg>
