<svg width="22" height="23" viewBox="0 0 22 23" fill="none" xmlns="http://www.w3.org/2000/svg">
<g id="Layer_1" clip-path="url(#clip0_309_690)">
<g id="Group">
<path id="Vector" d="M19.1319 15.0792C19.7216 15.0792 20.1997 14.6011 20.1997 14.0114V4.93522C20.1997 4.34554 19.7216 3.86743 19.1319 3.86743H2.58113C1.99144 3.86743 1.51334 4.34554 1.51334 4.93522V14.0114C1.51334 14.6011 1.99144 15.0792 2.58113 15.0792H19.1319Z" stroke="#F5F5F5" stroke-width="1.55315" stroke-miterlimit="10" stroke-linecap="round"/>
<path id="Vector_2" d="M4.44972 18.8161V15.0789" stroke="#F5F5F5" stroke-width="1.55315" stroke-miterlimit="10" stroke-linecap="round"/>
<path id="Vector_3" d="M17.2634 18.8165V16.6809" stroke="#F5F5F5" stroke-width="1.55315" stroke-miterlimit="10" stroke-linecap="round"/>
<path id="Vector_4" d="M4.44972 17.4817H17.2632" stroke="#F5F5F5" stroke-width="1.55315" stroke-miterlimit="10" stroke-linecap="round"/>
<path id="Vector_5" d="M7.65326 5.46899V13.4774" stroke="#F5F5F5" stroke-width="1.55315" stroke-miterlimit="10" stroke-linecap="round"/>
<path id="Vector_6" d="M14.0601 5.46899V13.4774" stroke="#F5F5F5" stroke-width="1.55315" stroke-miterlimit="10" stroke-linecap="round"/>
<path id="Vector_7" d="M3.11548 9.47314H18.5985" stroke="#F5F5F5" stroke-width="1.55315" stroke-miterlimit="10" stroke-linecap="round"/>
</g>
<g id="Group_2">
<g id="Group_3">
<g id="Group_4">
<path id="Vector_8" d="M19.7564 3.96673C19.7564 4.80284 19.0751 5.48421 18.2362 5.48421C17.4001 5.48421 16.7188 4.80284 16.7188 3.96673C16.7188 3.12791 17.4001 2.44653 18.2362 2.44653C19.0751 2.44653 19.7564 3.12791 19.7564 3.96673Z" fill="#F5F5F5"/>
</g>
<g id="Group_5">
<g id="Group_6">
<g id="Group_7">
<g id="Group_8">
<path id="Vector_9" d="M17.2699 1.90106C17.1641 1.90106 17.0636 1.83862 17.0202 1.73546L16.7297 1.04323C16.6727 0.904784 16.7379 0.744621 16.8763 0.687614C17.0147 0.630606 17.1722 0.695757 17.2319 0.834204L17.5224 1.52644C17.5794 1.66488 17.5142 1.82505 17.3758 1.88205C17.3405 1.89291 17.3052 1.90106 17.2699 1.90106Z" fill="#F5F5F5"/>
</g>
</g>
</g>
<g id="Group_9">
<g id="Group_10">
<g id="Group_11">
<path id="Vector_10" d="M15.8988 3.27178C15.8635 3.27178 15.8282 3.26364 15.7929 3.25006L15.1007 2.9596C14.9623 2.90259 14.8971 2.74243 14.9541 2.60398C15.0111 2.46553 15.1713 2.40038 15.3097 2.45739L16.002 2.74785C16.1404 2.80486 16.2056 2.96503 16.1485 3.10347C16.1078 3.20934 16.0047 3.27178 15.8988 3.27178Z" fill="#F5F5F5"/>
</g>
</g>
</g>
<g id="Group_12">
<g id="Group_13">
<g id="Group_14">
<path id="Vector_11" d="M15.2065 5.49196C15.1006 5.49196 15.0002 5.42953 14.9567 5.32637C14.8997 5.18793 14.9649 5.02776 15.1033 4.97075L15.7955 4.68029C15.934 4.62328 16.0914 4.68843 16.1512 4.82688C16.2082 4.96533 16.143 5.12549 16.0046 5.1825L15.3123 5.47296C15.277 5.48653 15.2418 5.49196 15.2065 5.49196Z" fill="#F5F5F5"/>
</g>
</g>
</g>
<g id="Group_15">
<g id="Group_16">
<g id="Group_17">
<path id="Vector_12" d="M16.9822 7.26461C16.9469 7.26461 16.9116 7.25646 16.8763 7.24289C16.7379 7.18588 16.6727 7.02572 16.7297 6.88727L17.0202 6.19504C17.0772 6.0566 17.2373 5.99145 17.3758 6.04845C17.5142 6.10546 17.5794 6.26562 17.5224 6.40407L17.2319 7.0963C17.1885 7.20217 17.088 7.26461 16.9822 7.26461Z" fill="#F5F5F5"/>
</g>
</g>
</g>
<g id="Group_18">
<g id="Group_19">
<g id="Group_20">
<path id="Vector_13" d="M19.4929 7.26507C19.387 7.26507 19.2866 7.20263 19.2431 7.09948L18.9527 6.40724C18.8957 6.2688 18.9608 6.10863 19.0992 6.05163C19.2377 5.99462 19.3951 6.05977 19.4549 6.19822L19.7453 6.89045C19.8023 7.0289 19.7372 7.18906 19.5987 7.24607C19.5607 7.25964 19.5254 7.26507 19.4929 7.26507Z" fill="#F5F5F5"/>
</g>
</g>
</g>
<g id="Group_21">
<g id="Group_22">
<g id="Group_23">
<path id="Vector_14" d="M21.2655 5.49224C21.2302 5.49224 21.1949 5.48409 21.1597 5.47052L20.4674 5.18005C20.329 5.12305 20.2638 4.96288 20.3208 4.82444C20.3778 4.68599 20.538 4.62084 20.6765 4.67785L21.3687 4.96831C21.5071 5.02532 21.5723 5.18548 21.5153 5.32393C21.4718 5.4298 21.3714 5.49224 21.2655 5.49224Z" fill="#F5F5F5"/>
</g>
</g>
</g>
<g id="Group_24">
<g id="Group_25">
<g id="Group_26">
<path id="Vector_15" d="M20.5735 3.27178C20.4676 3.27178 20.3671 3.20934 20.3237 3.10347C20.2667 2.96503 20.3319 2.80486 20.4703 2.74785L21.1652 2.45739C21.3037 2.40038 21.4611 2.46553 21.5209 2.60398C21.5779 2.74243 21.5127 2.90259 21.3743 2.9596L20.6793 3.25006C20.644 3.26364 20.6087 3.27178 20.5735 3.27178Z" fill="#F5F5F5"/>
</g>
</g>
</g>
<g id="Group_27">
<g id="Group_28">
<g id="Group_29">
<path id="Vector_16" d="M19.2025 1.90084C19.1672 1.90084 19.1319 1.8927 19.0966 1.87912C18.9582 1.82211 18.893 1.66195 18.95 1.52351L19.2405 0.831274C19.2975 0.692828 19.4577 0.627677 19.5961 0.684684C19.7346 0.741691 19.7997 0.901854 19.7427 1.0403L19.4523 1.73253C19.4088 1.8384 19.3084 1.90084 19.2025 1.90084Z" fill="#F5F5F5"/>
</g>
</g>
</g>
</g>
</g>
</g>
</g>
<defs>
<clipPath id="clip0_309_690">
<rect width="21.3558" height="21.3558" fill="white" transform="translate(0.178268 0.664062)"/>
</clipPath>
</defs>
</svg>
