<svg width="98" height="83" viewBox="0 0 98 83" fill="none" xmlns="http://www.w3.org/2000/svg">
<g id="Frame 199">
<path id="Vector" d="M46.5359 49.3312C44.1271 49.3292 41.8049 48.4326 40.0198 46.8153C38.2347 45.198 37.1139 42.9753 36.8749 40.5784C36.6359 38.1814 37.2957 35.7812 38.7263 33.8432C40.1569 31.9053 42.2563 30.5677 44.6173 30.0901C46.9783 29.6125 49.4325 30.0289 51.5038 31.2584C53.5752 32.488 55.1161 34.443 55.8275 36.7444C56.5389 39.0457 56.3701 41.5293 55.354 43.7133C54.3379 45.8973 52.5467 47.626 50.3281 48.5641C49.1285 49.0724 47.8387 49.3333 46.5359 49.3312Z" fill="url(#paint0_linear_582_4767)"/>
<path id="Vector_2" d="M46.5361 26.6626C46.0274 26.6626 45.5396 26.4605 45.1799 26.1008C44.8203 25.7412 44.6182 25.2534 44.6182 24.7447V20.3099C44.6182 19.8013 44.8203 19.3135 45.1799 18.9538C45.5396 18.5942 46.0274 18.3921 46.5361 18.3921C47.0447 18.3921 47.5325 18.5942 47.8922 18.9538C48.2518 19.3135 48.4539 19.8013 48.4539 20.3099V24.7447C48.4539 25.2534 48.2518 25.7412 47.8922 26.1008C47.5325 26.4605 47.0447 26.6626 46.5361 26.6626Z" fill="url(#paint1_linear_582_4767)"/>
<path id="Vector_3" d="M36.0384 31.0104C35.7866 31.0105 35.5373 30.9608 35.3047 30.8643C35.0721 30.7677 34.8609 30.6262 34.6832 30.4478L31.5466 27.3128C31.1933 26.9519 30.9966 26.4661 30.9993 25.961C31.002 25.4559 31.2038 24.9723 31.561 24.6151C31.9181 24.258 32.4018 24.0561 32.9069 24.0534C33.412 24.0507 33.8977 24.2474 34.2587 24.6008L37.3947 27.7365C37.6626 28.0047 37.845 28.3463 37.9188 28.7181C37.9927 29.0899 37.9547 29.4753 37.8097 29.8255C37.6647 30.1757 37.4191 30.4751 37.1041 30.6859C36.789 30.8966 36.4185 31.0093 36.0395 31.0096L36.0384 31.0104Z" fill="url(#paint2_linear_582_4767)"/>
<path id="Vector_4" d="M31.69 41.5084H27.2552C26.7466 41.5084 26.2588 41.3063 25.8991 40.9467C25.5395 40.587 25.3374 40.0992 25.3374 39.5906C25.3374 39.0819 25.5395 38.5941 25.8991 38.2344C26.2588 37.8748 26.7466 37.6727 27.2552 37.6727H31.69C32.1987 37.6727 32.6865 37.8748 33.0461 38.2344C33.4058 38.5941 33.6078 39.0819 33.6078 39.5906C33.6078 40.0992 33.4058 40.587 33.0461 40.9467C32.6865 41.3063 32.1987 41.5084 31.69 41.5084Z" fill="url(#paint3_linear_582_4767)"/>
<path id="Vector_5" d="M32.9023 55.142C32.5232 55.1416 32.1528 55.029 31.8377 54.8182C31.5226 54.6075 31.2771 54.3081 31.132 53.9578C30.987 53.6076 30.949 53.2223 31.0229 52.8505C31.0968 52.4787 31.2791 52.1371 31.547 51.8689L34.6828 48.7329C35.0425 48.3732 35.5303 48.1711 36.039 48.1711C36.5476 48.1711 37.0354 48.3732 37.3951 48.7329C37.7548 49.0925 37.9569 49.5804 37.9569 50.089C37.9569 50.5977 37.7548 51.0855 37.3951 51.4452L34.2583 54.5802C34.0805 54.7586 33.8691 54.9 33.6364 54.9965C33.4037 55.0929 33.1542 55.1423 32.9023 55.142Z" fill="url(#paint4_linear_582_4767)"/>
<path id="Vector_6" d="M46.5361 60.7885C46.0274 60.7885 45.5396 60.5864 45.1799 60.2267C44.8203 59.8671 44.6182 59.3793 44.6182 58.8706V54.4358C44.6182 53.9272 44.8203 53.4394 45.1799 53.0797C45.5396 52.7201 46.0274 52.518 46.5361 52.518C47.0447 52.518 47.5325 52.7201 47.8922 53.0797C48.2518 53.4394 48.4539 53.9272 48.4539 54.4358V58.8706C48.4539 59.3793 48.2518 59.8671 47.8922 60.2267C47.5325 60.5864 47.0447 60.7885 46.5361 60.7885Z" fill="url(#paint5_linear_582_4767)"/>
<path id="Vector_7" d="M60.1694 55.1415C59.9175 55.1416 59.6682 55.092 59.4356 54.9954C59.203 54.8989 58.9918 54.7573 58.8141 54.5789L55.6776 51.4439C55.3205 51.0837 55.1206 50.5967 55.1217 50.0896C55.1228 49.5824 55.3247 49.0963 55.6834 48.7376C56.042 48.379 56.5281 48.177 57.0352 48.1758C57.5424 48.1747 58.0294 48.3745 58.3896 48.7316L61.5254 51.8676C61.7933 52.1358 61.9757 52.4774 62.0495 52.8492C62.1234 53.221 62.0854 53.6063 61.9404 53.9566C61.7954 54.3068 61.5498 54.6062 61.2347 54.8169C60.9197 55.0277 60.5492 55.1404 60.1701 55.1407L60.1694 55.1415Z" fill="url(#paint6_linear_582_4767)"/>
<path id="Vector_8" d="M65.8161 41.5084H61.3813C60.8727 41.5084 60.3849 41.3063 60.0252 40.9467C59.6656 40.587 59.4635 40.0992 59.4635 39.5906C59.4635 39.0819 59.6656 38.5941 60.0252 38.2344C60.3849 37.8748 60.8727 37.6727 61.3813 37.6727H65.8161C66.3248 37.6727 66.8126 37.8748 67.1722 38.2344C67.5319 38.5941 67.7339 39.0819 67.7339 39.5906C67.7339 40.0992 67.5319 40.587 67.1722 40.9467C66.8126 41.3063 66.3248 41.5084 65.8161 41.5084Z" fill="url(#paint7_linear_582_4767)"/>
<path id="Vector_9" d="M57.0336 31.0108C56.6546 31.0104 56.2841 30.8978 55.969 30.687C55.654 30.4763 55.4084 30.1769 55.2634 29.8266C55.1184 29.4764 55.0804 29.091 55.1543 28.7192C55.2281 28.3474 55.4105 28.0059 55.6784 27.7377L58.8141 24.6019C59.1751 24.2486 59.6609 24.0519 60.166 24.0546C60.671 24.0573 61.1547 24.2591 61.5118 24.6163C61.869 24.9734 62.0708 25.4571 62.0735 25.9622C62.0762 26.4672 61.8795 26.953 61.5262 27.314L58.3897 30.4492C58.2118 30.6275 58.0004 30.7689 57.7677 30.8653C57.535 30.9617 57.2855 31.0111 57.0336 31.0108Z" fill="url(#paint8_linear_582_4767)"/>
<path id="Ellipse 90" d="M17.9656 60.0831C16.6925 61.0081 14.9008 60.7308 14.0715 59.3934C10.8074 54.1296 8.84007 48.1494 8.35196 41.9474C7.78915 34.7962 9.21485 27.6288 12.4714 21.2374C15.728 14.846 20.6886 9.47965 26.8048 5.73165C32.921 1.98365 39.9545 -8.55398e-08 47.1277 0C54.3009 8.55398e-08 61.3344 1.98366 67.4506 5.73165C73.5668 9.47965 78.5274 14.846 81.784 21.2374C85.0405 27.6288 86.4662 34.7962 85.9034 41.9474C85.4153 48.1494 83.448 54.1296 80.1839 59.3934C79.3546 60.7308 77.5629 61.0081 76.2897 60.0831C75.0166 59.1581 74.7461 57.3818 75.5585 56.0341C78.2142 51.6287 79.8167 46.6542 80.2223 41.5002C80.7026 35.3969 79.4858 29.2795 76.7064 23.8245C73.9269 18.3696 69.6931 13.7895 64.473 10.5906C59.253 7.39173 53.25 5.69871 47.1277 5.69871C41.0054 5.69871 35.0024 7.39173 29.7823 10.5906C24.5623 13.7895 20.3285 18.3696 17.549 23.8245C14.7696 29.2795 13.5528 35.3969 14.0331 41.5002C14.4387 46.6542 16.0412 51.6287 18.6969 56.0341C19.5093 57.3818 19.2387 59.1581 17.9656 60.0831Z" fill="#F5F5F5"/>
</g>
<defs>
<linearGradient id="paint0_linear_582_4767" x1="23.7846" y1="81.0431" x2="68.4595" y2="-0.353848" gradientUnits="userSpaceOnUse">
<stop offset="0.06" stop-color="#FF6800"/>
<stop offset="1" stop-color="#FFF100"/>
</linearGradient>
<linearGradient id="paint1_linear_582_4767" x1="16.5875" y1="77.0932" x2="61.2624" y2="-4.30396" gradientUnits="userSpaceOnUse">
<stop offset="0.06" stop-color="#FF6800"/>
<stop offset="1" stop-color="#FFF100"/>
</linearGradient>
<linearGradient id="paint2_linear_582_4767" x1="9.42306" y1="73.1607" x2="54.098" y2="-8.23656" gradientUnits="userSpaceOnUse">
<stop offset="0.06" stop-color="#FF6800"/>
<stop offset="1" stop-color="#FFF100"/>
</linearGradient>
<linearGradient id="paint3_linear_582_4767" x1="10.6714" y1="73.8463" x2="55.3463" y2="-7.55092" gradientUnits="userSpaceOnUse">
<stop offset="0.06" stop-color="#FF6800"/>
<stop offset="1" stop-color="#FFF100"/>
</linearGradient>
<linearGradient id="paint4_linear_582_4767" x1="19.601" y1="78.7476" x2="64.276" y2="-2.64959" gradientUnits="userSpaceOnUse">
<stop offset="0.06" stop-color="#FF6800"/>
<stop offset="1" stop-color="#FFF100"/>
</linearGradient>
<linearGradient id="paint5_linear_582_4767" x1="30.9817" y1="84.993" x2="75.6566" y2="3.59577" gradientUnits="userSpaceOnUse">
<stop offset="0.06" stop-color="#FF6800"/>
<stop offset="1" stop-color="#FFF100"/>
</linearGradient>
<linearGradient id="paint6_linear_582_4767" x1="38.1461" y1="88.9254" x2="82.821" y2="7.52819" gradientUnits="userSpaceOnUse">
<stop offset="0.06" stop-color="#FF6800"/>
<stop offset="1" stop-color="#FFF100"/>
</linearGradient>
<linearGradient id="paint7_linear_582_4767" x1="36.8973" y1="88.2405" x2="81.5722" y2="6.84326" gradientUnits="userSpaceOnUse">
<stop offset="0.06" stop-color="#FF6800"/>
<stop offset="1" stop-color="#FFF100"/>
</linearGradient>
<linearGradient id="paint8_linear_582_4767" x1="27.9678" y1="83.3394" x2="72.6427" y2="1.9421" gradientUnits="userSpaceOnUse">
<stop offset="0.06" stop-color="#FF6800"/>
<stop offset="1" stop-color="#FFF100"/>
</linearGradient>
</defs>
</svg>
